<svg width="24" height="24" viewBox="0 0 24 24" fill="none" xmlns="http://www.w3.org/2000/svg">
<rect opacity="0.01" width="23.9999" height="23.9998" fill="white"/>
<path d="M8.78676e-05 5.14287C8.78676e-05 3.24938 1.53504 1.71434 3.42853 1.71434H14.5715C16.465 1.71434 18 3.24935 18 5.14287V5.50001C18 5.77615 17.7762 6.00001 17.5 6.00001H0.500083C0.223943 6.00001 8.78676e-05 5.77615 8.78676e-05 5.50001V5.14287Z" fill="#B2B2B2"/>
<path d="M8.78676e-05 8.21427C8.78676e-05 7.93813 0.223944 7.71428 0.500083 7.71428H17.5C17.7762 7.71428 18 7.93813 18 8.21427V12.8571C18 14.7506 16.465 16.2856 14.5715 16.2856H3.42865C1.53511 16.2856 8.78676e-05 14.7506 8.78676e-05 12.8571V8.21427Z" fill="#B2B2B2"/>
<path d="M7.3101 21.2753C5.88992 21.0249 4.19255 19.9338 3.73673 18.6041C3.62331 18.2732 3.93598 17.9999 4.28576 17.9999H15.4286C17.7955 17.9999 19.7143 16.0811 19.7143 13.7142V8.32515C19.7143 8.03792 19.9557 7.80974 20.2425 7.82595L20.9758 7.8674C22.8406 8.19621 24.0857 9.97445 23.7569 11.8392L22.2685 20.2803C21.9397 22.1451 20.1614 23.3902 18.2967 23.0614L7.3101 21.2753Z" fill="#B2B2B2"/>
</svg>
