<svg width="24" height="24" viewBox="0 0 24 24" fill="none" xmlns="http://www.w3.org/2000/svg">
<path fill-rule="evenodd" clip-rule="evenodd" d="M17.8493 15.41C16.9493 15.41 15.6393 13.14 15.6393 9.58C15.6393 6.24 16.7893 4.04 17.6793 3.78C17.7393 3.76 17.7893 3.75 17.8493 3.75C18.7493 3.75 20.0492 6.02 20.0492 9.58C20.0492 13.14 18.7493 15.41 17.8493 15.41ZM10.3293 18.63C10.3293 19.52 9.59922 20.25 8.69922 20.25C7.80922 20.25 7.07922 19.52 7.07922 18.63V14.71C7.91922 14.89 9.07922 15.14 10.3293 15.4V18.63ZM17.8493 2.25C17.7093 2.25 17.5693 2.26 17.4293 2.3H17.3893C16.9693 2.39 7.14922 4.41 5.87922 4.73C4.22922 5.14 2.44922 7.11 2.44922 9.59C2.44922 11.9 4.01922 13.79 5.57922 14.34V18.63C5.57922 20.35 6.97922 21.75 8.69922 21.75C10.4293 21.75 11.8293 20.35 11.8293 18.63V15.72C14.5593 16.28 17.2293 16.83 17.4393 16.87H17.4593C17.4993 16.88 17.5493 16.89 17.5893 16.89H17.6293C17.6993 16.91 17.7793 16.91 17.8493 16.91C19.9593 16.91 21.5493 13.76 21.5493 9.58C21.5493 5.4 19.9593 2.25 17.8493 2.25Z" fill="#B2B2B2"/>
</svg>
