<svg width="24" height="24" viewBox="0 0 24 24" fill="none" xmlns="http://www.w3.org/2000/svg">
<path d="M15.6191 2C16.7304 2 17.7506 2.61459 18.2705 3.59668L20.8838 8.53223C20.9601 8.67635 21 8.83693 21 9V13.0078C20.6307 13.0027 20.27 13.039 19.9248 13.1094C19.4057 13.2152 18.9301 13.3969 18.5059 13.6104C18.0825 13.3958 17.6074 13.2128 17.0879 13.1055C15.8498 12.8498 14.4134 13.027 13.0977 14.0332C11.1385 15.5183 10.5282 18.049 11.3721 20.3213L11.3711 20.3223C11.6048 20.9602 11.9945 21.5244 12.4033 22H5C2.79086 22 1 20.2091 1 18V9C1 8.83693 1.03993 8.67635 1.11621 8.53223L3.72949 3.59668C4.24942 2.61459 5.26963 2 6.38086 2H15.6191ZM17.9375 15.5801C17.9823 15.608 18.0256 15.6372 18.0684 15.666C18.0256 15.6372 17.9823 15.608 17.9375 15.5801ZM17.7246 15.4561C17.7817 15.4873 17.8373 15.5198 17.8916 15.5527C17.8373 15.5198 17.7817 15.4873 17.7246 15.4561ZM17.4941 15.3379C17.5481 15.3632 17.6004 15.3908 17.6523 15.418C17.6004 15.3908 17.5481 15.3632 17.4941 15.3379ZM14.6328 15.4043C14.6739 15.3798 14.7147 15.356 14.7559 15.334C14.7147 15.356 14.6739 15.3798 14.6328 15.4043ZM17.2549 15.2354C17.3052 15.255 17.3544 15.2763 17.4033 15.2979C17.3545 15.2763 17.3052 15.255 17.2549 15.2354ZM14.959 15.2363C14.9926 15.2215 15.0259 15.2067 15.0596 15.1934C15.0259 15.2067 14.9926 15.2215 14.959 15.2363ZM17.0078 15.1494C17.0542 15.1639 17.1001 15.1791 17.1455 15.1953C17.1001 15.1791 17.0542 15.1639 17.0078 15.1494ZM15.0742 15.1875C15.1172 15.1707 15.1602 15.155 15.2031 15.1406C15.1602 15.155 15.1172 15.1707 15.0742 15.1875ZM15.2451 15.1279C15.2796 15.117 15.3142 15.1071 15.3486 15.0977C15.3142 15.1071 15.2796 15.117 15.2451 15.1279ZM16.7461 15.0791C16.7914 15.0894 16.8363 15.1002 16.8809 15.1123C16.8363 15.1002 16.7914 15.0894 16.7461 15.0791ZM15.3906 15.0859C15.4246 15.0772 15.4584 15.0688 15.4922 15.0615C15.4584 15.0688 15.4246 15.0772 15.3906 15.0859ZM16.4707 15.0293C16.5183 15.0358 16.5654 15.0432 16.6123 15.0518C16.5654 15.0432 16.5183 15.0358 16.4707 15.0293ZM15.5469 15.0508C15.5756 15.0452 15.6042 15.0398 15.6328 15.0352C15.6042 15.0398 15.5756 15.0452 15.5469 15.0508ZM15.6924 15.0264C15.7119 15.0237 15.7315 15.0218 15.751 15.0195C15.7315 15.0218 15.7119 15.0237 15.6924 15.0264ZM16.1904 15.0049C16.2425 15.007 16.2943 15.0098 16.3457 15.0146C16.2943 15.0098 16.2425 15.007 16.1904 15.0049ZM9 10C8.44772 10 8 10.4477 8 11C8 11.5523 8.44772 12 9 12H13C13.5523 12 14 11.5523 14 11C14 10.4477 13.5523 10 13 10H9ZM6.38086 4C6.01045 4 5.67038 4.20486 5.49707 4.53223L3.66113 8H10V4H6.38086ZM12 8H18.3389L16.5029 4.53223C16.3296 4.20486 15.9895 4 15.6191 4H12V8Z" fill="#B2B2B2"/>
<path d="M22.7011 15.6264C21.0918 14.4047 19.3715 15.2387 18.5036 15.9989C17.6358 15.2387 15.9162 14.3895 14.3061 15.6264C13.1067 16.5355 12.6807 18.1145 13.2491 19.6342C13.9751 21.616 18.1719 23.8655 18.3458 23.9552C18.3933 23.9849 18.4407 24 18.5036 24C18.5665 24 18.6139 23.9849 18.6614 23.9552C18.8352 23.8656 23.032 21.616 23.7581 19.6342C24.3104 18.1145 23.8999 16.5354 22.7011 15.6264Z" fill="#B2B2B2"/>
</svg>
