<svg width="10" height="10" viewBox="0 0 10 10" fill="none" xmlns="http://www.w3.org/2000/svg">
<g clip-path="url(#clip0_89_4910)">
<path d="M3.33317 9.16671C3.56329 9.16671 3.74984 8.98016 3.74984 8.75004C3.74984 8.51992 3.56329 8.33337 3.33317 8.33337C3.10305 8.33337 2.9165 8.51992 2.9165 8.75004C2.9165 8.98016 3.10305 9.16671 3.33317 9.16671Z" fill="white" stroke="white" stroke-linecap="round" stroke-linejoin="round"/>
<path d="M7.91667 9.16671C8.14679 9.16671 8.33333 8.98016 8.33333 8.75004C8.33333 8.51992 8.14679 8.33337 7.91667 8.33337C7.68655 8.33337 7.5 8.51992 7.5 8.75004C7.5 8.98016 7.68655 9.16671 7.91667 9.16671Z" fill="white" stroke="white" stroke-linecap="round" stroke-linejoin="round"/>
<path d="M0.854004 0.854126H1.68734L2.79567 6.02913C2.83633 6.21865 2.94178 6.38807 3.09388 6.50823C3.24598 6.62839 3.43521 6.69177 3.629 6.68746H7.704C7.89366 6.68715 8.07754 6.62216 8.22527 6.50322C8.37299 6.38429 8.47573 6.21851 8.5165 6.03329L9.204 2.93746H2.13317" fill="white"/>
<path d="M0.854004 0.854126H1.68734L2.79567 6.02913C2.83633 6.21865 2.94178 6.38807 3.09388 6.50823C3.24598 6.62839 3.43521 6.69177 3.629 6.68746H7.704C7.89366 6.68715 8.07754 6.62216 8.22526 6.50322C8.37299 6.38429 8.47573 6.21851 8.5165 6.03329L9.204 2.93746H2.13317" stroke="white" stroke-linecap="round" stroke-linejoin="round"/>
</g>
<defs>
<clipPath id="clip0_89_4910">
<rect width="10" height="10" fill="white"/>
</clipPath>
</defs>
</svg>
