<svg width="24" height="24" viewBox="0 0 24 24" fill="none" xmlns="http://www.w3.org/2000/svg">
<rect width="24" height="24" fill="#D9D9D9" fill-opacity="0.01"/>
<path fill-rule="evenodd" clip-rule="evenodd" d="M6.5 20C5.67263 20 5 20.6723 5 21.4994C5 22.3276 5.67263 23 6.5 23C7.32738 23 8 22.3276 8 21.4994C8 20.6723 7.32738 20 6.5 20Z" fill="#5558E3"/>
<path fill-rule="evenodd" clip-rule="evenodd" d="M17.5 20C16.6726 20 16 20.6723 16 21.4994C16 22.3276 16.6726 23 17.5 23C18.3274 23 19 22.3276 19 21.4994C19 20.6723 18.3274 20 17.5 20Z" fill="#5558E3"/>
<path d="M5 2L5.09668 2.00488C5.57504 2.0509 5.95929 2.43457 5.99707 2.92285L6.15723 5H20.6689C21.8945 5.0001 22.8316 6.0924 22.6455 7.30371L21.3916 15.4561C21.1664 16.9195 19.9065 18 18.4258 18H6.87305C5.81933 18 4.94592 17.1823 4.87695 16.1309L4.14746 5H4.15137L4.07422 4H3C2.44772 4 2 3.55228 2 3C2 2.44772 2.44772 2 3 2H5Z" fill="#5558E3"/>
</svg>
