<svg width="16" height="16" viewBox="0 0 16 16" fill="none" xmlns="http://www.w3.org/2000/svg">
<path d="M12.626 5.79822C12.7589 5.79822 12.8793 5.85647 12.9746 5.95447C13.0634 6.05912 13.1087 6.18924 13.0957 6.32654C13.094 6.39321 12.7396 10.8695 12.5371 12.7562C12.41 13.9166 11.6621 14.6215 10.54 14.641C9.6772 14.6603 8.83336 14.6664 8.00293 14.6664C7.12115 14.6664 6.25794 14.6603 5.4209 14.641C4.33647 14.6148 3.58742 13.8973 3.4668 12.7562C3.25855 10.8631 2.91152 6.39426 2.90332 6.32654C2.89684 6.18927 2.94089 6.05911 3.03027 5.95447C3.11843 5.8565 3.24538 5.79825 3.37891 5.79822H12.626ZM9.37695 1.33337C9.96613 1.33359 10.4922 1.74492 10.6445 2.33142L10.7539 2.81775C10.8421 3.21441 11.1855 3.49548 11.5811 3.49548H13.5244C13.7838 3.49548 14 3.71074 14 3.98474V4.23767C14 4.505 13.7838 4.72693 13.5244 4.72693H2.47559C2.21573 4.72675 2 4.50489 2 4.23767V3.98474C2 3.71086 2.21573 3.49566 2.47559 3.49548H4.41992C4.81468 3.49538 5.15825 3.21464 5.24707 2.81873L5.34863 2.36365C5.50689 1.74466 6.02749 1.33359 6.62305 1.33337H9.37695Z" fill="#FA5255"/>
</svg>
