<svg width="12" height="12" viewBox="0 0 12 12" fill="none" xmlns="http://www.w3.org/2000/svg">
<path fill-rule="evenodd" clip-rule="evenodd" d="M10.5003 9.28434C10.9144 9.28438 11.2503 9.62015 11.2503 10.0343C11.2501 10.4484 10.9143 10.7843 10.5003 10.7843H6.75026C6.33632 10.7841 6.00044 10.4483 6.00026 10.0343C6.00026 9.62024 6.3362 9.28453 6.75026 9.28434H10.5003ZM3.71412 10.0431L1.3567 10.633C1.08226 10.7014 0.834192 10.4523 0.9026 10.1779L1.49049 7.8195L3.71412 10.0431ZM8.20533 1.08024C8.64467 0.640897 9.35681 0.640897 9.79615 1.08024L10.4553 1.73844C10.8945 2.1778 10.8946 2.89096 10.4553 3.33024L4.52272 9.26188L2.27272 7.01188L8.20533 1.08024Z" fill="#306EFF"/>
</svg>
