<svg width="16" height="16" viewBox="0 0 16 16" fill="none" xmlns="http://www.w3.org/2000/svg">
<g opacity="0.5" clip-path="url(#clip0_89_6808)">
<path d="M8.00195 0C3.58396 0 0.00195312 3.58201 0.00195312 8C0.00195312 12.418 3.58396 16 8.00195 16C12.4199 16 16.002 12.418 16.002 8C16.002 3.58201 12.4199 0 8.00195 0ZM9.66862 12.3995C9.25592 12.5608 8.92788 12.6852 8.68185 12.7698C8.43582 12.8545 8.15275 12.8968 7.82735 12.8968C7.33 12.8968 6.94111 12.7751 6.66333 12.5317C6.3882 12.291 6.25063 11.9815 6.25063 11.6058C6.25063 11.4603 6.26121 11.3122 6.28238 11.1614C6.30089 11.0079 6.33529 10.8386 6.38026 10.6455L6.89613 8.8254C6.94111 8.65079 6.98079 8.48677 7.01254 8.33069C7.04428 8.1746 7.05751 8.03175 7.05751 7.90212C7.05751 7.67196 7.00989 7.50794 6.91465 7.41799C6.81677 7.3254 6.63423 7.28042 6.36439 7.28042C6.23211 7.28042 6.09455 7.30159 5.95433 7.34127C5.81412 7.3836 5.69508 7.42328 5.59455 7.46032L5.73211 6.89947C6.06809 6.7619 6.39084 6.6455 6.70037 6.54762C7.00724 6.44974 7.3009 6.39947 7.57338 6.39947C8.06809 6.39947 8.45169 6.52116 8.71888 6.75926C8.98608 6.99735 9.121 7.30952 9.121 7.69048C9.121 7.76984 9.11306 7.91005 9.09455 8.10847C9.07603 8.30688 9.04164 8.48942 8.99137 8.65873L8.47814 10.4735C8.43581 10.619 8.39878 10.7857 8.36439 10.9709C8.33264 11.1561 8.31677 11.2989 8.31677 11.3942C8.31677 11.6349 8.36968 11.8016 8.47814 11.8889C8.58396 11.9762 8.77179 12.0185 9.03899 12.0185C9.16333 12.0185 9.30354 11.9974 9.46227 11.955C9.61835 11.9101 9.73211 11.873 9.80354 11.8386L9.66862 12.3995ZM9.57603 5.03175C9.33793 5.25397 9.04957 5.36508 8.71359 5.36508C8.37761 5.36508 8.08661 5.25397 7.84587 5.03175C7.60513 4.80952 7.48608 4.53968 7.48608 4.22487C7.48608 3.91005 7.60777 3.63757 7.84587 3.4127C8.08661 3.18783 8.37761 3.07672 8.71359 3.07672C9.04957 3.07672 9.33793 3.18783 9.57603 3.4127C9.81677 3.63757 9.93581 3.91005 9.93581 4.22487C9.93581 4.53968 9.81677 4.80952 9.57603 5.03175Z" fill="black"/>
</g>
<defs>
<clipPath id="clip0_89_6808">
<rect width="16" height="16" fill="white"/>
</clipPath>
</defs>
</svg>
