<svg width="24" height="25" viewBox="0 0 24 25" fill="none" xmlns="http://www.w3.org/2000/svg">
<path fill-rule="evenodd" clip-rule="evenodd" d="M12.0007 0C15.3142 0.000187427 18.0007 2.68641 18.0007 6V6.03906C19.8532 6.22438 21.3569 7.67825 21.5729 9.56348L22.362 16.4492C22.702 19.4165 20.3819 22.0183 17.3952 22.0186H6.60612C3.61924 22.0185 1.29833 19.4167 1.63835 16.4492L2.42741 9.56348C2.64346 7.67811 4.14789 6.2242 6.00066 6.03906V6C6.00066 2.68629 8.68695 0 12.0007 0ZM8.00066 9.01855C7.44851 9.01855 7.00089 9.46647 7.00066 10.0186C7.00089 10.5706 7.44851 11.0186 8.00066 11.0186C8.55246 11.0182 9.00043 10.5704 9.00066 10.0186C9.00043 9.46671 8.55246 9.01895 8.00066 9.01855ZM16.0007 9.01855C15.4485 9.01855 15.0009 9.46647 15.0007 10.0186C15.0009 10.5706 15.4485 11.0186 16.0007 11.0186C16.5525 11.0182 17.0004 10.5704 17.0007 10.0186C17.0004 9.46671 16.5525 9.01895 16.0007 9.01855ZM12.0007 2C9.79152 2 8.00066 3.79086 8.00066 6V6.01855H16.0007V6C16.0007 3.79098 14.2096 2.00019 12.0007 2Z" fill="#B2B2B2"/>
</svg>
