<svg width="20" height="20" viewBox="0 0 20 20" fill="none" xmlns="http://www.w3.org/2000/svg">
<path d="M12.0244 17.501C11.6128 17.383 11.1912 17.2748 10.7896 17.1371C10.5136 17.0437 10.2527 16.9109 9.99166 16.7781C8.97776 16.2568 7.91375 16.1142 6.78445 16.2519C6.23236 16.3208 5.65517 16.3503 5.11311 16.2568C3.80313 16.0355 3.02518 14.7767 3.32632 13.4785C3.56222 12.4803 4.17956 11.7426 5.03782 11.2066C5.74551 10.7591 6.37289 10.2231 6.97016 9.65263C7.33153 9.30347 7.70796 8.96423 8.10448 8.64949C9.4044 7.59713 11.0908 8.28066 11.673 9.24938C11.9842 9.77066 12.2251 10.3313 12.476 10.8821C12.7471 11.4869 13.0683 12.0524 13.4849 12.5737C14.0018 13.2178 14.3381 13.9358 14.4335 14.757C14.5991 16.2028 13.4899 17.4617 12.0495 17.4469C12.0395 17.4568 12.0344 17.4764 12.0244 17.501Z" fill="#944FC0"/>
<path d="M14.9809 5.3775C14.9207 6.44459 14.499 7.374 13.5706 8.03295C12.3861 8.87383 11.076 8.36238 10.8001 6.96093C10.5591 5.75615 11.2467 4.26613 12.3309 3.64161C13.5505 2.9384 14.7952 3.56785 14.9558 4.96934C14.9658 5.09228 14.9709 5.21522 14.9809 5.3775Z" fill="#944FC0"/>
<path d="M10.0373 5.06757C10.0323 5.70193 9.88676 6.30186 9.51031 6.82804C8.76244 7.87055 7.51775 7.8853 6.74984 6.86246C5.99697 5.85929 6.00701 4.21192 6.7699 3.21859C7.50269 2.26458 8.69727 2.25967 9.44004 3.20875C9.82653 3.69558 10.0373 4.35453 10.0373 5.06757Z" fill="#944FC0"/>
<path d="M13.4424 10.4104C13.4474 9.26461 14.386 8.08933 15.5103 7.82379C16.5893 7.56807 17.4376 8.18277 17.5028 9.26953C17.573 10.4694 16.5442 11.7726 15.3396 12.0036C14.2605 12.2053 13.4374 11.5169 13.4424 10.4104Z" fill="#944FC0"/>
<path d="M6.12453 8.09717C6.11449 8.7414 5.98902 9.24784 5.63266 9.6806C5.15083 10.2609 4.40801 10.3937 3.74549 10.0248C2.52586 9.34128 2.10426 7.44314 2.92237 6.33178C3.4042 5.67283 4.21226 5.4958 4.91493 5.92363C5.76817 6.43997 6.06932 7.25628 6.12453 8.09717Z" fill="#944FC0"/>
</svg>
