<svg width="32" height="32" viewBox="0 0 32 32" fill="none" xmlns="http://www.w3.org/2000/svg">
<g clip-path="url(#clip0_89_6738)">
<path d="M19.239 28.0017C18.5805 27.8128 17.9059 27.6397 17.2634 27.4194C16.8217 27.2699 16.4043 27.0575 15.9867 26.845C14.3644 26.011 12.662 25.7828 10.8551 26.0031C9.97177 26.1132 9.04827 26.1605 8.18097 26.011C6.08501 25.6569 4.84028 23.6427 5.32211 21.5656C5.69955 19.9684 6.6873 18.7882 8.06051 17.9305C9.19281 17.2146 10.1966 16.3569 11.1523 15.4442C11.7305 14.8856 12.3327 14.3428 12.9672 13.8392C15.047 12.1554 17.7453 13.2491 18.6769 14.799C19.1748 15.6331 19.5601 16.5301 19.9617 17.4113C20.3953 18.379 20.9093 19.2839 21.5759 20.1179C22.4029 21.1485 22.941 22.2973 23.0936 23.6112C23.3586 25.9244 21.5839 27.9387 19.2792 27.9151C19.2631 27.9308 19.2551 27.9623 19.239 28.0017Z" fill="#0C061A"/>
<path d="M23.9694 8.60399C23.8731 10.3113 23.1985 11.7984 21.7129 12.8527C19.8177 14.1981 17.7217 13.3798 17.2801 11.1375C16.8946 9.20983 17.9947 6.82581 19.7294 5.82658C21.6808 4.70145 23.6723 5.70856 23.9293 7.95094C23.9454 8.14765 23.9534 8.34435 23.9694 8.60399Z" fill="#0C061A"/>
<path d="M16.0597 8.10811C16.0517 9.12309 15.8188 10.083 15.2165 10.9249C14.0199 12.5929 12.0284 12.6165 10.7997 10.9799C9.59516 9.37486 9.61122 6.73908 10.8318 5.14974C12.0043 3.62333 13.9156 3.61547 15.1041 5.134C15.7224 5.91293 16.0597 6.96725 16.0597 8.10811Z" fill="#0C061A"/>
<path d="M21.5078 16.6566C21.5159 14.8234 23.0175 12.9429 24.8164 12.5181C26.5429 12.1089 27.9002 13.0924 28.0044 14.8312C28.1169 16.751 26.4707 18.8361 24.5434 19.2058C22.8168 19.5284 21.4998 18.427 21.5078 16.6566Z" fill="#0C061A"/>
<path d="M9.79925 12.9555C9.78318 13.9862 9.58242 14.7965 9.01226 15.489C8.24133 16.4174 7.05281 16.6299 5.99279 16.0398C4.04138 14.946 3.36682 11.909 4.67579 10.1308C5.44672 9.07653 6.73962 8.79328 7.86389 9.47781C9.22908 10.304 9.71091 11.61 9.79925 12.9555Z" fill="#0C061A"/>
</g>
<defs>
<clipPath id="clip0_89_6738">
<rect width="32" height="32" fill="white"/>
</clipPath>
</defs>
</svg>
