<svg width="24" height="24" viewBox="0 0 24 24" fill="none" xmlns="http://www.w3.org/2000/svg">
<path fill-rule="evenodd" clip-rule="evenodd" d="M8.26617 8.44385C8.81823 8.44392 9.26592 8.89182 9.26617 9.44385C9.26617 9.99608 8.81839 10.4438 8.26617 10.4438H7.25054C6.17554 10.4441 5.26394 11.2167 5.08746 12.2612C5.08566 12.2719 5.08374 12.2829 5.0816 12.2935L4.02984 17.4624L4.03082 17.4634C3.8079 18.7842 4.83181 19.9992 6.1939 19.9995H17.8052C19.1676 19.9995 20.1913 18.7843 19.9683 17.4634V17.4624L18.9175 12.2935C18.9154 12.2829 18.9135 12.2718 18.9117 12.2612C18.7351 11.2166 17.8237 10.4438 16.7486 10.4438H15.7339C15.182 10.4435 14.7339 9.9959 14.7339 9.44385C14.7342 8.892 15.1821 8.44422 15.7339 8.44385H16.7486C18.7811 8.44385 20.5237 9.89746 20.8775 11.895L21.9351 17.0981L21.941 17.1304C22.372 19.684 20.3925 21.9995 17.8052 21.9995H6.1939C3.60684 21.9992 1.62722 19.6838 2.05816 17.1304L2.06402 17.0981L3.12164 11.895C3.47531 9.89751 5.21821 8.44407 7.25054 8.44385H8.26617ZM11.3668 2.22314C11.7591 1.90332 12.3385 1.92657 12.7046 2.2915L15.6402 5.22314C16.0308 5.61328 16.031 6.2464 15.6412 6.63721C15.2509 7.02798 14.6169 7.02846 14.2261 6.63818L12.9976 5.41064V15.0542C12.9976 15.6064 12.5499 16.0542 11.9976 16.0542C11.4458 16.0537 10.9977 15.6061 10.9976 15.0542V5.41162L9.77105 6.63818C9.38048 7.02841 8.74737 7.02851 8.35699 6.63818C7.96709 6.24745 7.96645 5.61335 8.35699 5.22314L11.2916 2.29248L11.3668 2.22314Z" fill="#306EFF"/>
</svg>
